<svg width="100" height="32" viewBox="0 0 100 32" fill="none" xmlns="http://www.w3.org/2000/svg">
<path d="M51.0883 24.93L50.8983 24.74H53.1983L50.4183 28.1L50.1283 30.4H48.2083L48.4983 28.1L46.8683 25.02L46.5783 24.74H48.5983L49.6483 26.85L51.0883 24.93ZM59.1351 24.74L58.4651 29.44H60.7651L61.4451 25.02L61.0551 24.74H63.3651L62.5951 30.4H57.1251C56.9318 30.4 56.7851 30.3367 56.6851 30.21C56.5918 30.0833 56.5451 29.9233 56.5451 29.73L57.2151 25.02L56.9251 24.74H59.1351ZM69.5597 24.74L71.5697 28.29L72.0497 24.74H73.6897L72.9197 30.4H70.9997L69.0797 26.94L68.5997 30.4H66.8697L67.6397 25.12L67.2497 24.74H69.5597ZM79.1543 29.44L79.7343 25.12L79.4443 24.74H81.6543L80.9843 29.73C80.931 29.9233 80.8377 30.0833 80.7043 30.21C80.571 30.3367 80.4077 30.4 80.2143 30.4H77.0443L77.2343 29.06L77.6243 29.44H79.1543ZM87.8957 24.74L87.0257 30.4H85.2057L85.8757 25.12L85.5857 24.74H87.8957ZM94.1371 24.74L96.1471 28.29L96.6271 24.74H98.2671L97.4971 30.4H95.5771L93.6571 26.94L93.1771 30.4H91.4471L92.2171 25.12L91.8271 24.74H94.1371Z" fill="white"/>
<path d="M51.0883 24.93L50.8983 24.74H53.1983L50.4183 28.1L50.1283 30.4H48.2083L48.4983 28.1L46.8683 25.02L46.5783 24.74H48.5983L49.6483 26.85L51.0883 24.93ZM59.1351 24.74L58.4651 29.44H60.7651L61.4451 25.02L61.0551 24.74H63.3651L62.5951 30.4H57.1251C56.9318 30.4 56.7851 30.3367 56.6851 30.21C56.5918 30.0833 56.5451 29.9233 56.5451 29.73L57.2151 25.02L56.9251 24.74H59.1351ZM69.5597 24.74L71.5697 28.29L72.0497 24.74H73.6897L72.9197 30.4H70.9997L69.0797 26.94L68.5997 30.4H66.8697L67.6397 25.12L67.2497 24.74H69.5597ZM79.1543 29.44L79.7343 25.12L79.4443 24.74H81.6543L80.9843 29.73C80.931 29.9233 80.8377 30.0833 80.7043 30.21C80.571 30.3367 80.4077 30.4 80.2143 30.4H77.0443L77.2343 29.06L77.6243 29.44H79.1543ZM87.8957 24.74L87.0257 30.4H85.2057L85.8757 25.12L85.5857 24.74H87.8957ZM94.1371 24.74L96.1471 28.29L96.6271 24.74H98.2671L97.4971 30.4H95.5771L93.6571 26.94L93.1771 30.4H91.4471L92.2171 25.12L91.8271 24.74H94.1371Z" fill="url(#paint0_linear)"/>
<path d="M65.11 14.304L66.67 22.182H62.068L61.886 21.324L47.066 22L47.43 19.322L52.292 12.614H46.884L47.222 10.118H69.01L68.672 12.614H57.726L53.15 19.036L61.366 18.646L60.508 14.304H65.11ZM68.36 3.982L67.996 6.53H49.666L50.03 3.982H68.36ZM92.148 21.532L93.37 19.686L93.89 16.072H92.434L91.576 22.182H87.858L88.716 16.072H87.26L86.48 21.506H83.048L84.14 13.836H89.028L89.158 12.796H84.478L85.596 4.892H88.092L88.326 4.19L87.754 3.54H92.798L92.226 4.892H98.414L97.296 12.796H92.876L92.746 13.836H97.686L96.854 19.764C96.7673 20.2667 96.5246 20.6913 96.126 21.038C95.7446 21.3673 95.3026 21.532 94.8 21.532H92.148ZM77.718 13.29L77.926 11.834H76.73L77.068 9.338H84.062L83.724 11.834H81.982L81.774 13.29H83.724L83.36 15.89H81.41L80.968 19.088L82.736 18.698L82.398 21.09L76.496 22.182L77.354 15.89H75.716L76.08 13.29H77.718ZM82.476 3.54L81.774 5.204H85.076L84.738 7.7H80.734L80.214 8.922H76.678L78.628 4.32L77.952 3.54H82.476ZM88.924 7.908H94.202L94.358 6.868H89.08L88.924 7.908ZM93.812 10.82L93.942 9.806H88.664L88.534 10.82H93.812Z" fill="white"/>
<path d="M65.11 14.304L66.67 22.182H62.068L61.886 21.324L47.066 22L47.43 19.322L52.292 12.614H46.884L47.222 10.118H69.01L68.672 12.614H57.726L53.15 19.036L61.366 18.646L60.508 14.304H65.11ZM68.36 3.982L67.996 6.53H49.666L50.03 3.982H68.36ZM92.148 21.532L93.37 19.686L93.89 16.072H92.434L91.576 22.182H87.858L88.716 16.072H87.26L86.48 21.506H83.048L84.14 13.836H89.028L89.158 12.796H84.478L85.596 4.892H88.092L88.326 4.19L87.754 3.54H92.798L92.226 4.892H98.414L97.296 12.796H92.876L92.746 13.836H97.686L96.854 19.764C96.7673 20.2667 96.5246 20.6913 96.126 21.038C95.7446 21.3673 95.3026 21.532 94.8 21.532H92.148ZM77.718 13.29L77.926 11.834H76.73L77.068 9.338H84.062L83.724 11.834H81.982L81.774 13.29H83.724L83.36 15.89H81.41L80.968 19.088L82.736 18.698L82.398 21.09L76.496 22.182L77.354 15.89H75.716L76.08 13.29H77.718ZM82.476 3.54L81.774 5.204H85.076L84.738 7.7H80.734L80.214 8.922H76.678L78.628 4.32L77.952 3.54H82.476ZM88.924 7.908H94.202L94.358 6.868H89.08L88.924 7.908ZM93.812 10.82L93.942 9.806H88.664L88.534 10.82H93.812Z" fill="url(#paint1_linear)"/>
<path d="M14.1398 32H26.8602C30.0938 30.5271 32.7308 27.9763 34.3313 24.7731C35.9318 21.5699 36.399 17.908 35.6549 14.3983C34.9108 10.8887 33.0005 7.74333 30.2426 5.48706C27.4847 3.23079 24.0459 2 20.5 2C16.9541 2 13.5153 3.23079 10.7574 5.48706C7.99951 7.74333 6.08918 10.8887 5.34511 14.3983C4.60104 17.908 5.0682 21.5699 6.66868 24.7731C8.26916 27.9763 10.9062 30.5271 14.1398 32Z" fill="url(#paint2_linear)"/>
<path d="M26.9458 32C29.3481 30.8913 31.4317 29.1815 33 27.0321L21.2113 6.15847C19.8339 3.7809 17.5831 2.05116 14.95 1.34671C12.317 0.642271 9.51544 1.02032 7.1568 2.39836C4.79817 3.7764 3.07392 6.04255 2.36033 8.70229C1.64674 11.362 2.00174 14.1994 3.34786 16.5953L12.0836 32H26.9458Z" fill="url(#paint3_linear)"/>
<path d="M27 32L19.0837 18.184C18.3134 16.8262 17.2458 15.6631 15.9622 14.7831C14.6786 13.9032 13.2126 13.3295 11.6758 13.1058C10.139 12.8821 8.57183 13.0142 7.09333 13.4921C5.61482 13.9699 4.26396 14.781 3.14341 15.8636C2.02286 16.9461 1.16212 18.2718 0.626631 19.7397C0.09114 21.2076 -0.105013 22.7791 0.0530842 24.3348C0.211181 25.8905 0.719365 27.3895 1.53901 28.7177C2.35865 30.0459 3.46818 31.1685 4.78325 32H27Z" fill="url(#paint4_linear)"/>
<defs>
<linearGradient id="paint0_linear" x1="47" y1="29.6923" x2="87.3339" y2="3.47526" gradientUnits="userSpaceOnUse">
<stop stop-color="#00F2E4"/>
<stop offset="1" stop-color="#00E9FE"/>
</linearGradient>
<linearGradient id="paint1_linear" x1="47.0189" y1="20" x2="101.915" y2="6.01709" gradientUnits="userSpaceOnUse">
<stop stop-color="#00F2E4"/>
<stop offset="1" stop-color="#00E9FE"/>
</linearGradient>
<linearGradient id="paint2_linear" x1="32.8742" y1="9.55154" x2="3.94406" y2="30.1076" gradientUnits="userSpaceOnUse">
<stop offset="0.065503" stop-color="#00E9FE"/>
<stop offset="0.739972" stop-color="#1D63EF"/>
</linearGradient>
<linearGradient id="paint3_linear" x1="9.5" y1="21.5" x2="23.99" y2="13.2088" gradientUnits="userSpaceOnUse">
<stop stop-color="#00D6E3"/>
<stop offset="1" stop-color="#71F7FF"/>
</linearGradient>
<linearGradient id="paint4_linear" x1="3" y1="30" x2="20.0605" y2="20.61" gradientUnits="userSpaceOnUse">
<stop stop-color="#00F2E4"/>
<stop offset="1" stop-color="#9BFFF9"/>
</linearGradient>
</defs>
</svg>
