<svg width="284" height="327" viewBox="0 0 284 327" fill="none" xmlns="http://www.w3.org/2000/svg">
<path fill-rule="evenodd" clip-rule="evenodd" d="M5.6888e-06 143V140.64C0.00796135 103.335 14.8334 67.5617 41.2154 41.1871C67.5975 14.8126 103.375 -0.00264708 140.68 5.68719e-06H143C161.478 -0.00524814 179.775 3.62967 196.848 10.6972C213.921 17.7646 229.434 28.1262 242.502 41.1901C255.569 54.2539 265.935 69.7642 273.008 86.8349C280.08 103.906 283.72 122.202 283.72 140.68V143C283.724 161.481 280.087 179.781 273.016 196.856C265.946 213.931 255.581 229.445 242.513 242.513C229.445 255.581 213.931 265.946 196.856 273.016C179.781 280.087 161.481 283.724 143 283.72H140.64C122.166 283.715 103.873 280.071 86.8071 272.996C69.7411 265.921 54.2356 255.555 41.1759 242.488C28.1163 229.42 17.7583 213.909 10.6933 196.839C3.62835 179.769 -0.00524793 161.474 5.6888e-06 143Z" fill="#EAF8F9"/>
<rect x="184" y="86.4287" width="22.2857" height="18.5714" rx="4" fill="#F8FFFF"/>
<path d="M199.6 90.8857V84.2C199.6 81.3281 201.928 79 204.8 79V79C207.671 79 210 81.3281 210 84.2V90.8857" stroke="#F8FFFF" stroke-width="4" stroke-linecap="round" stroke-linejoin="round"/>
<circle cx="234.999" cy="163.919" r="6.79412" fill="#F8FFFF"/>
<path d="M248.442 184.006C248.603 185.099 247.692 186 246.588 186H223.411C222.307 186 221.396 185.099 221.556 184.006C222.521 177.447 228.172 172.412 234.999 172.412C241.827 172.412 247.478 177.447 248.442 184.006Z" fill="#F8FFFF"/>
<path d="M158.865 202L182.5 210.664C182.938 210.8 183.32 211.074 183.591 211.445C183.861 211.817 184.004 212.266 184 212.727V228.746C184 247.803 163.34 256.174 158.284 258.776C157.991 258.923 157.669 259 157.341 259C157.014 259 156.692 258.923 156.399 258.776C151.329 256.177 132 247.894 132 228.861V212.784C132.004 212.333 132.145 211.894 132.404 211.526C132.664 211.158 133.03 210.879 133.452 210.726L157.425 202H158.865ZM157.999 216.251C156.322 216.249 154.699 216.844 153.418 217.931C152.137 219.018 151.281 220.526 151.001 222.187C150.722 223.849 151.037 225.556 151.892 227.005C152.746 228.455 154.085 229.553 155.669 230.105C155.646 230.236 155.634 230.368 155.635 230.501V242.374C155.635 243.004 155.884 243.608 156.328 244.054C156.771 244.499 157.372 244.749 157.999 244.749C158.626 244.749 159.227 244.499 159.67 244.054C160.113 243.608 160.362 243.004 160.362 242.374V230.501C160.363 230.369 160.351 230.237 160.326 230.108C161.906 229.552 163.24 228.453 164.091 227.005C164.942 225.556 165.256 223.852 164.978 222.194C164.7 220.536 163.847 219.029 162.57 217.942C161.293 216.854 159.675 216.255 158.001 216.251H157.999Z" fill="#F8FFFF"/>
<path d="M235 148.5V122.083C235 119.874 233.209 118.083 231 118.083H158C155.791 118.083 154 119.874 154 122.083V124C154 126.209 152.209 128 150 128H136.5M194.5 111V128V154.5C194.5 156.709 192.709 158.5 190.5 158.5H164C161.791 158.5 160 160.291 160 162.5V197.5M119 155.5V132C119 129.791 120.791 128 123 128H136.5M136.5 128V98C136.5 95.7909 134.709 94 132.5 94H112.5C110.291 94 108.5 92.2091 108.5 90V71" stroke="#F8FFFF" stroke-width="3" stroke-linecap="round"/>
<path d="M108.091 39.4023L108.091 39.4033C107.934 39.9087 107.984 40.4559 108.23 40.9245L109.115 40.4596L108.23 40.9245C108.476 41.3929 108.897 41.7445 109.402 41.9023C110.537 42.2582 111.562 42.8984 112.379 43.7618C113.197 44.6255 113.781 45.6839 114.074 46.8366C114.368 47.9892 114.362 49.1978 114.057 50.3475C113.752 51.4972 113.158 52.5498 112.332 53.4053L112.327 53.4097L104.077 62.0557L103.712 62.4099C102.372 63.6252 100.612 64.2726 98.8033 64.2151C96.9897 64.1574 95.2698 63.3953 94.0088 62.0905C92.7478 60.7857 92.0448 59.0409 92.049 57.2263C92.0531 55.4117 92.7642 53.6702 94.0312 52.3712L94.0313 52.3713L94.0401 52.3621L100.276 45.8045L100.315 45.763L100.35 45.7174L100.489 45.5322L100.526 45.4834L100.557 45.4305C100.801 45.0076 100.882 44.5099 100.784 44.0314C100.686 43.5529 100.416 43.1269 100.026 42.8338C99.6349 42.5408 99.1503 42.4011 98.6636 42.4412C98.1768 42.4812 97.7217 42.6982 97.3841 43.0512L97.3821 43.0533L91.1521 49.6052L91.1466 49.611L91.1411 49.617L90.7451 50.0471L90.7373 50.0556L90.7297 50.0643C88.8307 52.2252 87.8566 55.0456 88.0171 57.9178C88.1776 60.7901 89.4599 63.4844 91.5878 65.4203C93.7156 67.3562 96.5188 68.3788 99.3934 68.2679C102.267 68.157 104.982 66.9223 106.954 64.8298C106.955 64.8289 106.955 64.828 106.956 64.8271L115.216 56.172L115.223 56.1643L115.23 56.1565L115.626 55.7235L115.637 55.7116L115.648 55.6994C116.829 54.3205 117.65 52.6699 118.037 50.8956C118.423 49.1213 118.363 47.2788 117.862 45.5334C117.361 43.788 116.434 42.1943 115.165 40.8952C113.896 39.5962 112.325 38.6325 110.592 38.0905L110.59 38.09C110.085 37.9329 109.538 37.9829 109.069 38.2289C108.6 38.475 108.249 38.8971 108.091 39.4023Z" fill="#F8FFFF" stroke="#F8FFFF" stroke-width="2"/>
<path d="M111.773 49.8346L112.177 48.5368H111.732C111.703 48.4604 111.669 48.3855 111.631 48.3124C111.385 47.8442 110.964 47.4926 110.459 47.3348C109.324 46.9792 108.298 46.3392 107.48 45.4756C106.662 44.6121 106.078 43.5537 105.785 42.401C105.491 41.2483 105.496 40.0396 105.801 38.8898C106.106 37.74 106.7 36.6872 107.526 35.8315L107.526 35.8316L107.53 35.8274L115.784 27.1812L116.149 26.8271C117.489 25.6117 119.249 24.9643 121.057 25.0218C122.871 25.0795 124.591 25.8416 125.852 27.1464C127.113 28.4512 127.816 30.196 127.812 32.0106C127.808 33.8252 127.097 35.5667 125.829 36.8657L125.829 36.8656L125.821 36.8748L119.585 43.4324L119.548 43.4712L119.516 43.5136L119.376 43.6959L119.339 43.744L119.308 43.7962C119.059 44.2191 118.975 44.7191 119.071 45.2005C119.167 45.682 119.437 46.1112 119.829 46.4062C120.221 46.7012 120.709 46.8414 121.198 46.7999C121.686 46.7584 122.142 46.5388 122.479 46.1828C122.48 46.1823 122.48 46.1817 122.481 46.1812L128.709 39.6318L128.714 39.6259L128.72 39.6199L129.116 39.1898L129.125 39.1794L129.134 39.1687C131.015 37.0055 131.975 34.192 131.808 31.3302C131.641 28.4684 130.36 25.7858 128.24 23.8565C126.119 21.9271 123.328 20.9044 120.463 21.007C117.599 21.1097 114.888 22.3295 112.911 24.4054C112.911 24.4055 112.911 24.4057 112.911 24.4059L104.645 33.0648L104.636 33.0738L104.628 33.0831L104.235 33.5161L104.225 33.5267L104.216 33.5376C103.034 34.9164 102.214 36.567 101.827 38.3413C101.441 40.1156 101.501 41.9581 102.002 43.7035L102.959 43.4288L102.002 43.7035C102.503 45.4489 103.429 47.0426 104.698 48.3417C105.967 49.6407 107.539 50.6044 109.272 51.1464L109.273 51.1469C109.779 51.304 110.326 51.254 110.795 51.008C111.263 50.7619 111.615 50.3399 111.773 49.8346Z" fill="#F8FFFF" stroke="#F8FFFF" stroke-width="2"/>
<path d="M103.832 194.227C106.587 195.256 109.573 195.523 112.494 195.001C115.414 194.479 118.169 193.187 120.485 191.252C122.801 189.317 124.598 186.806 125.699 183.968C126.799 181.13 127.165 178.063 126.76 175.07L142.436 167.592C142.973 167.347 143.459 166.996 143.867 166.559C144.275 166.122 144.596 165.608 144.811 165.047C145.025 164.486 145.13 163.889 145.119 163.292C145.107 162.694 144.98 162.107 144.744 161.565C144.508 161.024 144.169 160.538 143.745 160.137C143.321 159.736 142.822 159.428 142.276 159.229C141.731 159.031 141.149 158.947 140.567 158.983C139.984 159.018 139.412 159.172 138.883 159.436L135.677 160.965L135.201 159.877C134.833 159.032 134.163 158.429 133.376 158.136C132.59 157.842 131.688 157.858 130.856 158.254C130.058 158.636 129.433 159.324 129.118 160.166C128.803 161.009 128.825 161.938 129.177 162.749L129.653 163.837L123.333 166.852C121.505 164.479 119.051 162.573 116.069 161.459C111.871 159.891 107.199 160.113 103.083 162.077C98.9661 164.041 95.7418 167.585 94.1189 171.93C92.4961 176.276 92.6077 181.066 94.4292 185.247C96.2507 189.428 99.6329 192.658 103.832 194.227Z" fill="#F8FFFF"/>
<path d="M172.1 102C172.076 102.218 172.019 102.431 171.93 102.63C171.915 102.583 171.888 102.542 171.85 102.51C171.811 102.496 171.768 102.496 171.73 102.51C171.647 102.474 171.556 102.461 171.467 102.471C171.377 102.482 171.292 102.516 171.22 102.57C171.054 102.673 170.908 102.805 170.79 102.96C170.736 102.996 170.689 103.04 170.65 103.09C170.581 103.183 170.517 103.28 170.46 103.38C170.413 103.455 170.376 103.536 170.35 103.62C170.125 104.133 169.928 104.657 169.76 105.19C169.877 104.169 170.105 103.163 170.44 102.19C170.467 102.111 170.5 102.034 170.54 101.96C170.632 101.666 170.818 101.409 171.07 101.23C171.146 101.174 171.232 101.134 171.324 101.112C171.415 101.09 171.51 101.086 171.603 101.101C171.696 101.116 171.786 101.149 171.866 101.199C171.946 101.248 172.015 101.314 172.07 101.39C172.152 101.584 172.163 101.8 172.1 102Z" fill="#FFC6A0"/>
<path d="M169.68 105.28C169.511 105.695 169.317 106.099 169.1 106.49L169.04 106.59C168.921 106.719 168.778 106.824 168.62 106.9L168.34 107.01C168.389 106.55 168.504 106.099 168.68 105.67C168.819 105.401 168.923 105.115 168.99 104.82C169.025 104.368 169.025 103.913 168.99 103.46C169.018 102.97 169.22 102.505 169.56 102.15C169.655 102.028 169.786 101.938 169.935 101.893C170.084 101.848 170.243 101.851 170.39 101.9L170.49 101.98C170.451 102.054 170.417 102.131 170.39 102.21C170.055 103.183 169.827 104.189 169.71 105.21L169.68 105.28Z" fill="#FFC6A0"/>
<path d="M168.13 105.19C168.02 105.68 167.82 106.19 167.69 106.66C167.644 106.86 167.624 107.065 167.63 107.27C167.243 107.435 166.901 107.689 166.63 108.01C166.597 108.04 166.573 108.078 166.56 108.12C166.302 108.401 166.014 108.653 165.7 108.87C165.805 108.417 165.963 107.977 166.17 107.56C166.288 107.35 166.386 107.129 166.46 106.9C166.46 106.65 166.46 106.37 166.54 106.11C166.588 105.786 166.719 105.481 166.921 105.223C167.122 104.965 167.387 104.765 167.69 104.64C167.789 104.6 167.9 104.6 168 104.64C168.17 104.72 168.17 105 168.13 105.19Z" fill="#FFC6A0"/>
<path d="M170.87 107.27C170.751 107.62 170.593 107.955 170.4 108.27C170.191 108.64 169.928 108.977 169.62 109.27C168.99 109.82 168.29 110.27 167.69 110.83C167.09 111.39 166.78 112.04 166.19 112.55C165.22 113.321 164.175 113.991 163.07 114.55C161.807 115.28 160.597 116.099 159.45 117C158.67 117.63 157.93 118.3 157.13 118.9C156.708 119.206 156.271 119.489 155.82 119.75C155.403 119.933 155.023 120.19 154.7 120.51C153.743 120.094 152.854 119.538 152.06 118.86C151.846 118.694 151.675 118.48 151.56 118.235C151.445 117.99 151.391 117.721 151.4 117.45C151.54 116.57 152.69 115.94 153.33 115.45C154.099 114.903 154.737 114.193 155.2 113.37C155.35 113.06 155.45 112.73 155.59 112.43C155.874 111.806 156.297 111.256 156.828 110.823C157.359 110.389 157.982 110.084 158.65 109.93C159.42 109.75 159.57 109.02 159.88 108.37C160.25 107.55 160.63 106.72 161.01 105.91C161.26 105.36 161.83 104.31 162.95 104.91C163.205 105.011 163.415 105.199 163.544 105.441C163.672 105.683 163.71 105.963 163.65 106.23C163.621 106.459 163.546 106.68 163.43 106.88L162.64 108.45C162.49 108.76 161.97 109.45 162.1 109.81C162.33 110.51 163.63 109.87 164.04 109.71C164.45 109.55 165.04 109.35 165.45 109.12C165.528 109.082 165.602 109.035 165.67 108.98C165.841 108.907 166.002 108.813 166.15 108.7C166.284 108.55 166.411 108.393 166.53 108.23L166.6 108.15C167.079 107.691 167.657 107.349 168.29 107.15C168.347 107.121 168.407 107.101 168.47 107.09C168.595 107.062 168.713 107.011 168.82 106.94C168.884 106.877 168.941 106.806 168.99 106.73C169.274 106.332 169.491 105.889 169.63 105.42C169.78 105.07 169.92 104.7 170.04 104.35C170.1 104.16 170.16 103.97 170.23 103.8L170.33 103.62C170.431 103.452 170.544 103.291 170.67 103.14C170.84 102.967 171.044 102.83 171.27 102.74C171.38 102.701 171.5 102.701 171.61 102.74C171.709 102.817 171.782 102.923 171.818 103.043C171.854 103.163 171.851 103.292 171.81 103.41C171.62 104.52 171.29 105.91 170.87 107.27Z" fill="#FFC6A0"/>
<path d="M170.79 102.9C170.908 102.745 171.054 102.613 171.22 102.51C171.292 102.456 171.377 102.422 171.467 102.411C171.556 102.401 171.647 102.414 171.73 102.45C171.829 102.527 171.902 102.633 171.938 102.753C171.974 102.873 171.971 103.002 171.93 103.12C171.62 104.52 171.29 105.91 170.87 107.27C170.751 107.62 170.593 107.955 170.4 108.27C170.191 108.64 169.928 108.977 169.62 109.27C168.99 109.82 168.29 110.27 167.69 110.83C167.09 111.39 166.78 112.04 166.19 112.55C165.22 113.32 164.175 113.991 163.07 114.55C161.807 115.28 160.597 116.099 159.45 117C158.67 117.63 157.93 118.3 157.13 118.9C156.708 119.205 156.271 119.489 155.82 119.75C155.403 119.932 155.023 120.19 154.7 120.51C153.743 120.093 152.854 119.537 152.06 118.86C151.846 118.694 151.675 118.48 151.56 118.235C151.445 117.989 151.391 117.721 151.4 117.45C151.54 116.57 152.69 115.94 153.33 115.45C154.099 114.903 154.737 114.192 155.2 113.37C155.35 113.06 155.45 112.73 155.59 112.43C155.874 111.806 156.297 111.256 156.828 110.823C157.359 110.389 157.982 110.084 158.65 109.93C159.42 109.75 159.57 109.02 159.88 108.37C160.25 107.55 160.63 106.72 161.01 105.91C161.26 105.36 161.83 104.31 162.95 104.91C163.205 105.011 163.415 105.199 163.544 105.441C163.672 105.683 163.71 105.963 163.65 106.23C163.621 106.459 163.546 106.68 163.43 106.88L162.64 108.45C162.49 108.76 161.97 109.45 162.1 109.81C162.33 110.51 163.63 109.87 164.04 109.71C164.45 109.55 165.04 109.35 165.45 109.12C165.528 109.082 165.602 109.035 165.67 108.98C165.984 108.763 166.272 108.512 166.53 108.23L166.6 108.15C167.079 107.691 167.657 107.349 168.29 107.15" stroke="#DB836E" stroke-width="0.5" stroke-miterlimit="10"/>
<path d="M170.32 103.6L170.42 103.42C170.521 103.252 170.634 103.091 170.76 102.94" stroke="#DB836E" stroke-width="0.5" stroke-miterlimit="10"/>
<path d="M169.71 105.21C169.879 104.677 170.075 104.153 170.3 103.64" stroke="#DB836E" stroke-width="0.5" stroke-miterlimit="10"/>
<path d="M169 106.59C169.284 106.192 169.501 105.749 169.64 105.28" stroke="#DB836E" stroke-width="0.5" stroke-miterlimit="10"/>
<path d="M168.34 107L168.62 106.89C168.778 106.814 168.921 106.709 169.04 106.58" stroke="#DB836E" stroke-width="0.5" stroke-miterlimit="10"/>
<path d="M170.49 102C170.582 101.706 170.768 101.449 171.02 101.27C171.096 101.214 171.182 101.174 171.273 101.152C171.365 101.13 171.46 101.126 171.553 101.141C171.646 101.156 171.736 101.189 171.816 101.239C171.896 101.288 171.965 101.354 172.02 101.43C172.108 101.61 172.133 101.815 172.09 102.01C172.066 102.228 172.009 102.441 171.92 102.64C171.905 102.593 171.878 102.552 171.84 102.52C171.801 102.506 171.758 102.506 171.72 102.52C171.61 102.481 171.49 102.481 171.38 102.52C171.154 102.611 170.95 102.747 170.78 102.92C170.78 102.92 170.78 102.92 170.78 102.92C170.726 102.956 170.679 103 170.64 103.05C170.571 103.143 170.507 103.24 170.45 103.34C170.403 103.415 170.366 103.496 170.34 103.58C170.27 103.75 170.21 103.94 170.15 104.13C170.03 104.48 169.89 104.85 169.74 105.2" stroke="#DB836E" stroke-width="0.5" stroke-miterlimit="10"/>
<path d="M169.68 105.28C169.511 105.695 169.317 106.099 169.1 106.49L169.04 106.59C168.991 106.666 168.934 106.737 168.87 106.8C168.763 106.871 168.645 106.922 168.52 106.95C168.457 106.961 168.397 106.981 168.34 107.01V107.01C168.389 106.55 168.504 106.099 168.68 105.67C168.819 105.401 168.923 105.115 168.99 104.82C169.025 104.368 169.025 103.913 168.99 103.46C169.018 102.97 169.22 102.505 169.56 102.15C169.655 102.028 169.786 101.938 169.935 101.893C170.084 101.848 170.243 101.851 170.39 101.9L170.49 101.98C170.451 102.054 170.417 102.131 170.39 102.21C170.055 103.183 169.827 104.189 169.71 105.21L169.68 105.28Z" stroke="#DB836E" stroke-width="0.5" stroke-miterlimit="10"/>
<path d="M165.67 108.89C165.775 108.437 165.933 107.997 166.14 107.58C166.259 107.37 166.356 107.149 166.43 106.92C166.43 106.67 166.43 106.39 166.51 106.13C166.558 105.806 166.689 105.501 166.891 105.243C167.092 104.985 167.357 104.785 167.66 104.66C167.759 104.62 167.87 104.62 167.97 104.66C168.17 104.75 168.17 105.02 168.13 105.22C168.02 105.71 167.82 106.22 167.69 106.69C167.644 106.89 167.624 107.095 167.63 107.3C167.243 107.465 166.901 107.719 166.63 108.04C166.598 108.07 166.574 108.108 166.56 108.15C166.441 108.313 166.314 108.47 166.18 108.62C166.032 108.732 165.871 108.826 165.7 108.9L165.67 108.89Z" stroke="#DB836E" stroke-width="0.5" stroke-miterlimit="10"/>
<path d="M20.3798 103.53C21.0998 105 21.3198 106.71 21.8998 108.21C20.7161 106.899 19.8233 105.352 19.2798 103.67C19.2798 103.67 19.2798 103.67 19.2798 103.67C19.2798 103.4 19.4198 103.08 19.6798 103.03C19.9398 102.98 20.2498 103.25 20.3798 103.53Z" fill="#FFC6A0" stroke="#DB836E" stroke-width="0.5" stroke-miterlimit="10"/>
<path d="M22.85 105.39C23.0577 105.484 23.2423 105.622 23.3909 105.795C23.5394 105.968 23.6484 106.171 23.71 106.39C23.7827 106.786 23.8195 107.188 23.82 107.59C23.8721 108.072 23.9829 108.545 24.15 109C24.29 109.49 24.44 110 24.58 110.44C24.1405 110.162 23.7227 109.851 23.33 109.51C23.18 109.39 23.03 109.27 22.89 109.14C22.7 108.65 22.52 108.14 22.37 107.65C22.3172 107.541 22.2931 107.421 22.3 107.3C22.3 107.15 22.5 106.08 22.5 105.69C22.5 105.54 22.5 105.35 22.69 105.33C22.749 105.329 22.8063 105.35 22.85 105.39Z" fill="#FFC6A0" stroke="#DB836E" stroke-width="0.5" stroke-miterlimit="10"/>
<path d="M33.3499 114.8C33.7368 116.109 34.5065 117.272 35.5599 118.14C34.4656 119.4 33.463 120.737 32.5599 122.14C32.0424 121.393 31.3576 120.777 30.5599 120.34C30.2165 120.233 29.9042 120.045 29.6499 119.79C29.3999 119.39 29.3199 118.89 29.0299 118.51C28.7526 118.18 28.4127 117.909 28.0299 117.71C25.2865 115.844 22.8334 113.583 20.7499 111L19.8099 109.92C19.6403 109.741 19.4864 109.546 19.3499 109.34C19.1623 109.025 19.0113 108.69 18.8999 108.34C18.5199 107.26 18.1499 106.18 17.7799 105.12C17.5298 104.476 17.3553 103.805 17.2599 103.12C17.2275 102.94 17.2397 102.755 17.2955 102.581C17.3513 102.406 17.4489 102.248 17.5799 102.12C17.763 102.021 17.9758 101.99 18.1795 102.034C18.3832 102.078 18.5643 102.194 18.6899 102.36C18.9332 102.693 19.1004 103.076 19.1799 103.48C19.2072 103.576 19.2406 103.669 19.2799 103.76C19.8348 105.41 20.7271 106.925 21.8999 108.21C22.278 108.648 22.6928 109.053 23.1399 109.42C23.2777 109.554 23.4247 109.678 23.5799 109.79C23.9669 110.134 24.3817 110.445 24.8199 110.72C25.3099 111.01 25.7699 111.13 25.8999 110.62C26.1299 109.62 24.7499 108.13 24.5199 107.19C24.3899 106.69 24.4199 106 24.9099 105.83C25.099 105.773 25.3008 105.773 25.4899 105.83C26.0177 105.975 26.501 106.249 26.8958 106.628C27.2905 107.007 27.5841 107.479 27.7499 108C28.0499 108.92 27.9699 110 28.6699 110.69C29.3699 111.38 30.1799 111.22 30.9199 111.52C32.2299 112 32.8899 113.46 33.3499 114.8Z" fill="#FFC6A0" stroke="#DB836E" stroke-width="0.5" stroke-miterlimit="10"/>
<path d="M122.36 310.24C122.426 310.851 122.262 311.464 121.9 311.96C122.524 312.816 123.212 313.621 123.96 314.37C122.859 315.027 121.591 315.35 120.31 315.3C118.948 315.38 117.582 315.38 116.22 315.3C117.54 313.92 115.22 310.2 116.22 308.53C116.79 307.53 120.67 308.53 120.91 307.43C121.058 307.587 121.219 307.73 121.39 307.86C121.501 307.945 121.622 308.016 121.75 308.07C122.12 308.736 122.329 309.479 122.36 310.24Z" fill="#A4AABA"/>
<path d="M105.31 320.94C105.31 321.79 105.31 322.54 105.31 323.09C105.285 322.918 105.285 322.743 105.31 322.57C105.28 322.27 105.3 321.7 105.31 320.94Z" fill="#CBD1D1"/>
<path d="M134.68 311.28C134.672 311.485 134.649 311.689 134.61 311.89C134.4 312.926 133.971 313.905 133.35 314.76C131.826 317 129.716 318.778 127.25 319.9C125.414 320.67 123.484 321.191 121.51 321.45C120.19 321.65 118.87 321.79 117.51 321.88C117.184 321.872 116.862 321.945 116.57 322.09C116.394 322.215 116.236 322.363 116.1 322.53C115.333 323.281 114.407 323.848 113.39 324.19C112.121 324.718 110.764 324.999 109.39 325.02C108.009 325.033 106.671 324.538 105.63 323.63C105.485 323.519 105.368 323.375 105.29 323.21C105.281 323.171 105.281 323.13 105.29 323.09C105.29 322.54 105.29 321.79 105.29 320.94C105.29 320.09 105.29 319.14 105.29 318.18C105.29 317.5 105.29 316.8 105.29 316.1C105.29 315.4 105.29 314.79 105.29 314.18C105.29 314.06 105.29 313.95 105.29 313.83C105.29 313.02 105.29 312.28 105.29 311.67C105.29 311.06 105.29 310.61 105.29 310.35C105.54 310.5 115.07 310.05 115.84 309.25C117.2 309.34 118.98 315.37 120.34 315.3C121.303 315.299 122.26 315.137 123.17 314.82C122.73 314.33 122.32 313.82 121.93 313.28C122.123 313.045 122.256 312.767 122.32 312.47C122.18 312.3 122.06 312.13 121.93 311.96C122.14 311.699 122.281 311.39 122.34 311.06C122.37 310.791 122.37 310.519 122.34 310.25C122.335 310.021 122.305 309.793 122.25 309.57C122.168 309.046 121.991 308.541 121.73 308.08C122.266 308.284 122.837 308.38 123.41 308.36C125.443 308.48 127.483 308.44 129.51 308.24C130.251 308.096 131.012 308.075 131.76 308.18C132.61 308.431 133.37 308.921 133.95 309.59C134.191 309.811 134.387 310.076 134.53 310.37C134.643 310.659 134.695 310.97 134.68 311.28Z" fill="#CBD1D1"/>
<path d="M134.79 312.6C134.64 313.871 134.141 315.075 133.35 316.08C131.826 318.32 129.716 320.099 127.25 321.22C125.414 321.99 123.483 322.511 121.51 322.77C120.19 322.97 118.87 323.11 117.51 323.2C117.184 323.193 116.861 323.265 116.57 323.41C116.394 323.536 116.236 323.684 116.1 323.85C115.379 324.673 114.484 325.326 113.48 325.76C112.192 326.298 110.815 326.589 109.42 326.62C108.05 326.62 105.99 326.12 105.28 324.77C105.28 324.77 105.28 323.44 105.28 323.09C105.271 323.13 105.271 323.171 105.28 323.21C105.358 323.375 105.475 323.519 105.62 323.63C106.674 324.541 108.027 325.029 109.42 325C110.794 324.98 112.151 324.698 113.42 324.17C114.437 323.828 115.363 323.261 116.13 322.51C116.266 322.344 116.424 322.196 116.6 322.07C116.891 321.925 117.214 321.853 117.54 321.86C118.87 321.77 120.19 321.63 121.54 321.43C123.513 321.171 125.444 320.65 127.28 319.88C129.746 318.759 131.856 316.98 133.38 314.74C134 313.885 134.43 312.906 134.64 311.87C134.688 311.556 134.712 311.238 134.71 310.92C134.803 311.475 134.829 312.039 134.79 312.6Z" fill="#2B0849"/>
<path d="M83.1797 319.67V319.52C83.1797 319.4 83.1797 318.86 83.1797 318.07C83.1797 318.22 83.1797 318.33 83.1797 318.37C83.2047 318.803 83.2047 319.237 83.1797 319.67Z" fill="#CBD1D1"/>
<path d="M83.1801 319.67C83.1737 320.119 83.1133 320.566 83.0001 321C82.7662 321.842 82.2138 322.559 81.4601 323C80.7474 323.327 79.9603 323.459 79.1801 323.38C78.069 323.367 76.9701 323.147 75.9401 322.73C74.9038 322.305 74.0433 321.54 73.5001 320.56C73.0583 319.563 72.8464 318.48 72.8801 317.39C72.9113 316.854 72.8224 316.318 72.6201 315.82C72.4031 315.436 72.1146 315.096 71.7701 314.82C70.532 313.844 69.4052 312.734 68.4101 311.51C67.7215 310.619 67.2739 309.565 67.1101 308.45C67.0401 308.003 67.0401 307.548 67.1101 307.1C67.2855 306.338 67.5683 305.604 67.9501 304.92C68.1505 304.445 68.4506 304.019 68.8301 303.67C69.2201 305.94 71.9401 301.58 72.9201 303.67C75.0301 308.16 82.9201 305.8 83.2001 305.11C83.8801 306.13 83.1801 319.67 83.1801 319.67Z" fill="#CBD1D1"/>
<path d="M83.1801 319.67C83.2546 320.489 83.187 321.315 82.9801 322.11C82.7462 322.952 82.1939 323.669 81.4401 324.11C80.7274 324.438 79.9404 324.569 79.1601 324.49C78.0491 324.477 76.9502 324.257 75.9201 323.84C74.8839 323.415 74.0233 322.65 73.4801 321.67C73.0384 320.674 72.8265 319.59 72.8601 318.5C72.8811 317.988 72.7924 317.476 72.6001 317C72.3832 316.616 72.0947 316.277 71.7501 316C70.512 315.024 69.3852 313.914 68.3901 312.69C67.4312 311.507 66.9656 309.999 67.0901 308.48C67.2539 309.595 67.7016 310.649 68.3901 311.54C69.3852 312.764 70.512 313.874 71.7501 314.85C72.0947 315.127 72.3832 315.466 72.6001 315.85C72.8025 316.348 72.8913 316.884 72.8601 317.42C72.8265 318.51 73.0384 319.594 73.4801 320.59C74.0233 321.57 74.8839 322.335 75.9201 322.76C76.9502 323.177 78.0491 323.397 79.1601 323.41C79.9404 323.489 80.7274 323.358 81.4401 323.03C82.2077 322.586 82.7684 321.856 83.0001 321C83.1133 320.566 83.1738 320.119 83.1801 319.67Z" fill="#2B0849"/>
<path d="M83.1699 318.07C83.1699 316.78 83.2299 311.92 83.2399 308.88C83.2499 311.17 83.1899 315.72 83.1699 318.07Z" fill="#CBD1D1"/>
<path d="M109.52 166.24C110.16 166.42 109.79 171.08 109.79 171.08C107.89 171.26 75.2799 171.37 63.6699 170.77L63.9599 166.48C65.3499 165.71 101 163.8 109.52 166.24Z" fill="#192064"/>
<path d="M109.79 171.08C116.87 179.58 122.37 304.18 122.04 307.18C121.49 309.88 109.44 314.39 103.04 310.13C102.72 305.37 94.2001 224.54 87.51 207.9L84.82 208.67C84.03 214.61 85.07 305.11 85.07 305.12C82.73 309.54 69.29 306.86 68.82 303.68C68.44 301.04 61.54 228.58 60.88 221.46C60.16 213.7 58.62 180.46 63.68 170.41C79.047 169.565 94.4541 169.789 109.79 171.08Z" fill="#7BB2F9"/>
<path d="M88.1499 173.19C95.3247 172.555 102.546 172.656 109.7 173.49C110.7 173.61 110.64 172.11 109.7 171.99C102.546 171.156 95.3247 171.055 88.1499 171.69C87.1499 171.76 87.1499 173.26 88.1499 173.19Z" fill="#648BD8"/>
<path d="M92.9001 81.7603C93.5101 81.0503 94.3601 81.6403 94.9001 82.1303C95.1478 82.4312 95.4223 82.709 95.7201 82.9603C96.1901 83.2403 96.4901 82.7303 96.3401 82.3203C96.1901 81.9103 95.6401 81.4403 95.4501 80.9003C95.1801 80.1103 94.9001 79.3103 94.6201 78.5103L95.1601 79.0403C96.9878 80.7375 98.2747 82.9358 98.8601 85.3603C99.0204 86.0827 99.0348 86.8298 98.9026 87.5579C98.7704 88.286 98.4942 88.9803 98.0901 89.6003C97.3501 90.6003 96.0901 91.1603 95.5901 92.3503C95.4801 92.6003 95.2501 95.5503 95.5901 95.5503C94.2772 95.4101 92.9531 95.4101 91.6401 95.5503C92.2359 93.6083 92.3762 91.5552 92.0501 89.5503C91.8487 88.1295 91.7618 86.6949 91.7901 85.2603C91.8225 84.5284 91.9571 83.8047 92.1901 83.1103C92.3409 82.6201 92.5817 82.1623 92.9001 81.7603Z" fill="#FFC6A0"/>
<path d="M90.1797 62.0002C90.705 61.9769 91.2281 62.0823 91.7035 62.307C92.1788 62.5318 92.5922 62.8692 92.9075 63.29C93.2229 63.7108 93.4307 64.2023 93.513 64.7216C93.5953 65.241 93.5495 65.7726 93.3797 66.2702C92.8997 67.5802 91.6497 68.8902 91.4297 70.2702C91.2097 71.6502 92.2397 72.7802 92.7797 73.8202C93.3796 75.0407 93.8876 76.3042 94.2997 77.6002L94.6197 78.5302C94.8997 79.3102 95.1997 80.0802 95.5397 80.8302C95.7497 81.3002 96.6397 82.2702 96.2697 82.8302C95.7697 83.5502 94.7097 82.1002 94.3597 81.8302C94.0097 81.5602 93.6597 81.2802 93.2497 81.4502C92.6597 81.6902 92.3897 82.7302 92.2497 83.2602C91.5997 85.2602 91.8997 87.5002 92.1197 89.5802C92.4653 91.5855 92.3177 93.6448 91.6897 95.5802C89.3297 95.9702 86.9897 96.4802 84.6897 96.9302C83.0875 97.3547 81.5197 97.8995 79.9997 98.5602C74.4097 95.5602 68.5497 83.8302 68.5997 83.9802C67.8897 81.8302 67.0997 79.7202 67.3897 77.4202C67.7021 75.4575 68.4359 73.5858 69.5407 71.9337C70.6455 70.2817 72.0951 68.8886 73.7897 67.8502C75.9311 66.681 78.2425 65.8543 80.6397 65.4002C82.3059 64.9275 83.9339 64.3291 85.5097 63.6102C86.8897 63.0002 88.6297 62.0002 90.1797 62.0002Z" fill="#520038"/>
<path d="M95.9301 95.7801L99.5001 100.2L110.78 101.11C112.19 101.109 113.582 101.429 114.851 102.046C116.119 102.663 117.23 103.56 118.1 104.67L135.26 126.5L150.63 114.5C153.308 116.397 155.306 119.103 156.33 122.22L136 141.2C135.406 141.753 134.637 142.082 133.827 142.129C133.016 142.176 132.215 141.94 131.56 141.46C124.941 136.787 119.244 130.929 114.76 124.18C114.672 124.088 114.559 124.023 114.435 123.995C114.31 123.966 114.181 123.975 114.061 124.02C113.942 124.065 113.838 124.144 113.763 124.247C113.689 124.35 113.646 124.473 113.64 124.6C113.36 128.7 112.64 140.47 111.91 143.19C109.46 152.31 109.45 158.65 110.74 160.54C112.37 163.02 109.52 166.24 109.52 166.24C94.4383 164.725 79.2469 164.645 64.1501 166C62.5901 164.06 63.1501 162.15 64.3301 157.94C66.0701 151.47 63.3801 132.94 62.5201 127.4C62.5002 127.283 62.445 127.175 62.3618 127.09C62.2786 127.006 62.1714 126.949 62.0548 126.927C61.9382 126.905 61.8177 126.92 61.7095 126.969C61.6014 127.017 61.5108 127.098 61.4501 127.2C59.2242 132.39 56.4341 137.32 53.1301 141.9C52.8755 142.255 52.5466 142.549 52.1664 142.764C51.7862 142.978 51.3638 143.107 50.9286 143.141C50.4935 143.176 50.0561 143.114 49.647 142.962C49.2379 142.81 48.867 142.57 48.5601 142.26L30.5601 123.6C31.5001 119.98 33.5601 117.6 36.8701 116.77L47.2201 126.3L57.0001 108.5C57.9535 106.765 59.3354 105.302 61.0141 104.252C62.6928 103.202 64.6124 102.599 66.5901 102.5L77.1401 101.41L80.4201 97.2101C82.6301 95.0001 93.4501 94.0001 95.9301 95.7801Z" fill="white" stroke="#E4EBF7" stroke-miterlimit="10"/>
<path d="M85.5399 165.3H84.5799C84.4694 165.3 84.3799 165.39 84.3799 165.5V170.04C84.3799 170.151 84.4694 170.24 84.5799 170.24H85.5399C85.6503 170.24 85.7399 170.151 85.7399 170.04V165.5C85.7399 165.39 85.6503 165.3 85.5399 165.3Z" fill="#7BB2F9" stroke="#648BD8" stroke-width="0.5" stroke-miterlimit="10"/>
<path d="M105.4 178.47C107.94 192.36 110.18 206.32 112.4 220.26C113.49 227.06 114.58 233.87 115.57 240.68C116.006 243.462 116.284 246.267 116.4 249.08C116.56 254.62 116.65 260.16 116.71 265.69C116.85 277.75 117.05 289.79 117.86 301.83C117.92 302.83 119.42 302.83 119.36 301.83C118.63 290.97 118.36 280.11 118.25 269.24C118.19 263.84 118.13 258.44 118 253.04C117.981 249.45 117.75 245.864 117.31 242.3C115.31 227.79 112.83 213.3 110.42 198.89C109.27 192 108.11 185 106.84 178.07C106.67 177.13 105.23 177.53 105.4 178.47Z" fill="#648BD8"/>
<path d="M109.62 197.33C111.81 194.104 112.797 190.21 112.41 186.33C112.32 185.33 110.82 185.33 110.91 186.33C111.283 189.928 110.369 193.542 108.33 196.53C107.78 197.33 109.08 198.08 109.62 197.29V197.33Z" fill="#648BD8"/>
<path d="M106.49 182.1H109.23C109.429 182.1 109.619 182.021 109.76 181.88C109.901 181.74 109.98 181.549 109.98 181.35C109.98 181.151 109.901 180.96 109.76 180.82C109.619 180.679 109.429 180.6 109.23 180.6H106.49C106.292 180.603 106.102 180.683 105.962 180.823C105.822 180.963 105.742 181.152 105.74 181.35C105.745 181.547 105.825 181.735 105.965 181.875C106.105 182.014 106.292 182.095 106.49 182.1Z" fill="#648BD8"/>
<path d="M83.0702 205.59C81.0702 211.96 80.7102 218.59 80.6802 225.26C80.6802 232.24 80.6468 239.24 80.5802 246.26C80.5002 259.77 80.6402 273.26 80.2802 286.81C80.1202 292.93 79.9402 299.04 79.9102 305.16C79.9102 305.359 79.9892 305.55 80.1298 305.691C80.2705 305.831 80.4612 305.91 80.6602 305.91C80.8591 305.91 81.0498 305.831 81.1905 305.691C81.3311 305.55 81.4102 305.359 81.4102 305.16C81.4102 293.82 81.9302 282.49 81.9702 271.16C81.9702 256.96 82.1902 242.75 82.1802 228.55C82.1802 220.97 82.1802 213.34 84.5102 206.04C84.8102 205.12 83.3602 204.72 83.0702 205.64V205.59Z" fill="#648BD8"/>
<path d="M65.3999 182.49H74.3999C74.5988 182.49 74.7896 182.411 74.9302 182.271C75.0709 182.13 75.1499 181.939 75.1499 181.74C75.1499 181.541 75.0709 181.351 74.9302 181.21C74.7896 181.069 74.5988 180.99 74.3999 180.99H65.3999C65.201 180.99 65.0102 181.069 64.8696 181.21C64.7289 181.351 64.6499 181.541 64.6499 181.74C64.6499 181.939 64.7289 182.13 64.8696 182.271C65.0102 182.411 65.201 182.49 65.3999 182.49Z" fill="#648BD8"/>
<path d="M75.15 181.51C73.9404 185.642 73.5999 189.98 74.15 194.25C74.27 195.19 75.77 195.2 75.65 194.25C75.1194 190.112 75.46 185.909 76.65 181.91C76.7031 181.718 76.6775 181.512 76.5791 181.339C76.4806 181.165 76.3173 181.038 76.125 180.985C75.9327 180.932 75.7273 180.958 75.5538 181.056C75.3803 181.154 75.2531 181.318 75.2 181.51H75.15Z" fill="#648BD8"/>
<path d="M68.5198 198C70.6027 197.786 72.579 196.973 74.2098 195.66C74.3503 195.519 74.4292 195.329 74.4292 195.13C74.4292 194.931 74.3503 194.741 74.2098 194.6C74.0668 194.464 73.8771 194.389 73.6798 194.389C73.4826 194.389 73.2929 194.464 73.1498 194.6C72.4916 195.11 71.7686 195.53 70.9998 195.85C70.5953 196.012 70.1812 196.149 69.7598 196.26C69.3498 196.369 68.9319 196.446 68.5098 196.49C68.3133 196.498 68.1268 196.579 67.9877 196.718C67.8487 196.857 67.7673 197.044 67.7598 197.24C67.7585 197.339 67.777 197.437 67.8142 197.529C67.8514 197.62 67.9066 197.704 67.9765 197.773C68.0464 197.843 68.1296 197.899 68.2212 197.936C68.3128 197.973 68.411 197.991 68.5098 197.99L68.5198 198Z" fill="#648BD8"/>
<path d="M67.16 197.08C65.1972 196.402 63.4271 195.259 62 193.75C61.8582 193.612 61.668 193.535 61.47 193.535C61.2721 193.535 61.0819 193.612 60.94 193.75C60.7996 193.891 60.7207 194.082 60.7207 194.28C60.7207 194.479 60.7996 194.67 60.94 194.81C62.5537 196.497 64.55 197.77 66.76 198.52C66.9446 198.555 67.1355 198.519 67.2949 198.42C67.4544 198.321 67.5707 198.165 67.621 197.984C67.6713 197.803 67.6518 197.61 67.5664 197.443C67.4811 197.275 67.3361 197.146 67.16 197.08Z" fill="#648BD8"/>
<path d="M64.4197 180.61H64.3197H64.3797H64.2297H63.2297H63.0797L62.7497 180.53L62.4297 180.42H62.2997H62.2097C62.0359 180.324 61.8331 180.296 61.6397 180.34C61.4981 180.381 61.3715 180.463 61.2755 180.575C61.1795 180.687 61.1182 180.825 61.0992 180.971C61.0801 181.118 61.104 181.266 61.168 181.399C61.2321 181.532 61.3334 181.644 61.4597 181.72C61.9729 181.959 62.5189 182.121 63.0797 182.2C63.6436 182.28 64.2159 182.28 64.7797 182.2C64.9656 182.144 65.1253 182.024 65.2297 181.86C65.303 181.73 65.3365 181.582 65.3261 181.433C65.3157 181.285 65.2619 181.143 65.1713 181.024C65.0808 180.906 64.9575 180.817 64.8167 180.768C64.676 180.719 64.524 180.713 64.3797 180.75L64.4197 180.61Z" fill="#648BD8"/>
<path d="M61.49 184.84H61.88C61.9811 184.842 62.0809 184.818 62.17 184.77C62.2607 184.74 62.3429 184.689 62.41 184.62C62.4812 184.554 62.536 184.472 62.57 184.38C62.6099 184.289 62.6303 184.19 62.63 184.09V183.89C62.5989 183.765 62.5331 183.65 62.44 183.56L62.29 183.44C62.1751 183.373 62.0435 183.338 61.91 183.34H61.52C61.4195 183.33 61.3182 183.351 61.23 183.4C61.137 183.431 61.054 183.486 60.99 183.56C60.8511 183.702 60.7723 183.892 60.77 184.09V184.29C60.8055 184.414 60.8707 184.528 60.96 184.62L61.11 184.73C61.2241 184.801 61.3556 184.839 61.49 184.84Z" fill="#648BD8"/>
<path d="M67 185.23H68.56C68.758 185.226 68.9472 185.147 69.09 185.01C69.2307 184.87 69.3098 184.679 69.31 184.48C69.3074 184.282 69.2276 184.093 69.0875 183.953C68.9474 183.812 68.7581 183.733 68.56 183.73H67C66.9014 183.729 66.8036 183.748 66.7125 183.786C66.6214 183.824 66.5389 183.879 66.47 183.95C66.3293 184.091 66.2502 184.281 66.25 184.48C66.2551 184.677 66.3357 184.865 66.4753 185.005C66.6148 185.144 66.8027 185.225 67 185.23Z" fill="#648BD8"/>
<path d="M72.0498 185.62H74.3998C74.5987 185.62 74.7895 185.541 74.9301 185.4C75.0708 185.26 75.1498 185.069 75.1498 184.87C75.1498 184.671 75.0708 184.48 74.9301 184.34C74.7895 184.199 74.5987 184.12 74.3998 184.12H72.0498C71.8509 184.12 71.6601 184.199 71.5195 184.34C71.3788 184.48 71.2998 184.671 71.2998 184.87C71.2998 185.069 71.3788 185.26 71.5195 185.4C71.6601 185.541 71.8509 185.62 72.0498 185.62Z" fill="#648BD8"/>
<path d="M72.28 182.58C71.5286 184.044 71.089 185.647 70.9892 187.289C70.8894 188.931 71.1314 190.576 71.7 192.12C71.756 192.31 71.8828 192.47 72.054 192.569C72.2253 192.668 72.4279 192.697 72.62 192.65C72.8113 192.594 72.973 192.466 73.0702 192.292C73.1675 192.118 73.1925 191.912 73.14 191.72C72.6293 190.369 72.4038 188.927 72.4778 187.485C72.5518 186.043 72.9237 184.632 73.57 183.34C74.01 182.48 72.72 181.72 72.28 182.58Z" fill="#648BD8"/>
<path d="M88.6898 183.64C90.8306 183.008 93.0478 182.672 95.2798 182.64C97.8398 182.53 100.4 182.64 102.95 182.74C103.95 182.8 103.95 181.3 102.95 181.24C100.32 181.1 97.6798 181.03 95.0398 181.15C92.7553 181.181 90.4852 181.518 88.2898 182.15C87.3798 182.45 87.7698 183.9 88.6898 183.6V183.64Z" fill="#648BD8"/>
<path d="M87.0899 182.72C84.9485 187.851 84.8413 193.604 86.7899 198.81C87.1399 199.7 88.5899 199.31 88.2299 198.41C86.3715 193.463 86.4788 187.991 88.5299 183.12C88.9099 182.23 87.4499 181.85 87.0899 182.72Z" fill="#648BD8"/>
<path d="M87.4301 199.26L95.9401 204.12C96.1102 204.207 96.3071 204.226 96.4905 204.172C96.6739 204.119 96.83 203.998 96.927 203.833C97.024 203.668 97.0545 203.473 97.0123 203.287C96.9701 203.1 96.8584 202.937 96.7001 202.83L88.1901 198C88.0177 197.9 87.8123 197.871 87.6191 197.922C87.426 197.973 87.2608 198.098 87.1601 198.27C87.0593 198.443 87.0311 198.648 87.0817 198.841C87.1324 199.034 87.2577 199.2 87.4301 199.3V199.26Z" fill="#648BD8"/>
<path d="M96.2501 204C98.7801 202.305 101.423 200.785 104.16 199.45C104.333 199.351 104.458 199.187 104.51 198.995C104.561 198.802 104.535 198.598 104.435 198.425C104.336 198.253 104.172 198.127 103.98 198.075C103.787 198.024 103.583 198.051 103.41 198.15C100.675 199.488 98.0321 201.008 95.5001 202.7C94.7001 203.23 95.5001 204.53 96.2501 204Z" fill="#648BD8"/>
<path d="M104.29 198.41C103.086 193.342 102.805 188.098 103.46 182.93C103.58 181.93 102.08 181.93 101.96 182.93C101.306 188.234 101.604 193.611 102.84 198.81C103.06 199.75 104.51 199.35 104.29 198.41Z" fill="#648BD8"/>
<path d="M88.4897 187.59C92.4054 187.649 96.3213 187.492 100.22 187.12C101.22 187.03 101.22 185.53 100.22 185.62C96.3213 185.992 92.4054 186.149 88.4897 186.09C88.2908 186.09 88.1001 186.169 87.9594 186.31C87.8188 186.45 87.7397 186.641 87.7397 186.84C87.7397 187.039 87.8188 187.23 87.9594 187.37C88.1001 187.511 88.2908 187.59 88.4897 187.59Z" fill="#648BD8"/>
<path d="M83.8499 177.63L83.0699 180C83.0173 180.193 83.0424 180.398 83.1396 180.572C83.2369 180.746 83.3986 180.874 83.5899 180.93C83.7833 180.977 83.9873 180.949 84.1602 180.85C84.333 180.752 84.4617 180.591 84.5199 180.4L85.2999 178C85.3525 177.808 85.3274 177.603 85.2302 177.429C85.1329 177.255 84.9712 177.126 84.7799 177.07C84.5865 177.023 84.3825 177.052 84.2096 177.151C84.0367 177.249 83.908 177.41 83.8499 177.6V177.63Z" fill="#648BD8"/>
<path d="M63.9297 172.85C67.9297 172.53 72.0397 172.15 76.0997 172.14C78.8727 172.17 81.64 172.401 84.3797 172.83C85.3797 172.97 85.7397 171.52 84.7797 171.39C81.9748 170.936 79.1408 170.685 76.2997 170.64C72.1697 170.64 68.0397 171.03 63.9297 171.35C62.9297 171.42 62.9297 172.93 63.9297 172.85Z" fill="#648BD8"/>
<path d="M69.68 244.43C70.5797 245.905 71.8127 247.148 73.28 248.06C73.4499 248.15 73.6475 248.172 73.8331 248.122C74.0186 248.072 74.1783 247.953 74.28 247.79C74.3674 247.62 74.3882 247.423 74.3382 247.238C74.2883 247.053 74.1713 246.893 74.01 246.79C73.84 246.69 73.68 246.58 73.52 246.47L73.27 246.29C73.27 246.29 73.13 246.19 73.27 246.29C73.41 246.39 73.27 246.29 73.21 246.29C72.9068 246.049 72.6195 245.788 72.35 245.51C72.081 245.241 71.8273 244.957 71.59 244.66C71.51 244.55 71.59 244.66 71.59 244.66C71.5511 244.618 71.5175 244.571 71.49 244.52C71.43 244.45 71.38 244.37 71.33 244.3C71.2107 244.133 71.1005 243.959 71 243.78C70.8967 243.619 70.7364 243.502 70.5509 243.454C70.3655 243.406 70.1687 243.43 70 243.52C69.835 243.62 69.7149 243.78 69.6646 243.966C69.6143 244.152 69.6377 244.351 69.73 244.52L69.68 244.43Z" fill="#648BD8"/>
<path d="M78.2901 245.13C78.2422 246.597 77.8363 248.03 77.1077 249.304C76.3792 250.579 75.3501 251.655 74.1101 252.44C73.2901 252.95 74.0401 254.25 74.8601 253.74C76.3212 252.816 77.5342 251.548 78.3935 250.047C79.2527 248.546 79.7322 246.859 79.7901 245.13C79.7901 244.931 79.7111 244.741 79.5704 244.6C79.4298 244.459 79.239 244.38 79.0401 244.38C78.8412 244.38 78.6504 244.459 78.5098 244.6C78.3691 244.741 78.2901 244.931 78.2901 245.13Z" fill="#648BD8"/>
<path d="M102 249.85L106.7 251.4C106.892 251.453 107.098 251.428 107.271 251.329C107.445 251.231 107.572 251.067 107.625 250.875C107.678 250.683 107.652 250.477 107.554 250.304C107.455 250.13 107.292 250.003 107.1 249.95L102.4 248.4C102.209 248.348 102.005 248.373 101.833 248.471C101.66 248.568 101.534 248.73 101.48 248.92C101.43 249.112 101.456 249.316 101.553 249.49C101.65 249.663 101.81 249.792 102 249.85Z" fill="#648BD8"/>
<path d="M110.28 244.23L109.84 244.61L109.72 244.7C109.82 244.62 109.72 244.7 109.72 244.7L109.49 244.88C109.17 245.11 108.836 245.321 108.49 245.51L107.97 245.77L107.71 245.89C107.78 245.89 107.71 245.89 107.71 245.89H107.58C107.19 246.04 106.8 246.16 106.4 246.27C106.209 246.324 106.047 246.45 105.948 246.622C105.849 246.794 105.821 246.998 105.87 247.19C105.928 247.38 106.057 247.54 106.23 247.637C106.404 247.734 106.608 247.76 106.8 247.71C108.531 247.264 110.127 246.402 111.45 245.2C111.582 245.058 111.655 244.87 111.651 244.676C111.648 244.481 111.569 244.296 111.432 244.159C111.294 244.021 111.109 243.943 110.914 243.939C110.72 243.936 110.532 244.008 110.39 244.14L110.28 244.23Z" fill="#648BD8"/>
<path d="M61.59 180.49C60.7079 185.001 60.4823 189.615 60.92 194.19C61.02 195.14 62.52 195.19 62.42 194.19C61.9855 189.75 62.1943 185.27 63.04 180.89C63.22 179.95 61.78 179.54 61.59 180.49Z" fill="#648BD8"/>
<path d="M81.1999 101.2C84.8199 98.9302 90.1999 98.0102 94.1099 100.2C94.2823 100.301 94.4877 100.329 94.6808 100.279C94.874 100.228 95.0391 100.103 95.1399 99.9302C95.2407 99.7578 95.2689 99.5524 95.2183 99.3593C95.1676 99.1661 95.0423 99.001 94.8699 98.9002C90.5399 96.4402 84.5199 97.3402 80.4499 99.9002C79.6299 100.41 80.3799 101.71 81.1999 101.19V101.2Z" fill="#E4EBF7"/>
<path d="M64.6201 166.3C72.5401 165.84 80.2701 163.93 88.2001 163.65C94.6001 163.42 101.61 163.39 107.66 165.74C108.56 166.09 108.95 164.64 108.06 164.29C102 161.94 95.0001 161.93 88.5501 162.13C80.5501 162.39 72.6501 164.33 64.6201 164.8C63.6201 164.86 63.6201 166.36 64.6201 166.3Z" fill="#E4EBF7"/>
<path d="M92.3698 81.8903C91.9535 82.7377 91.8202 83.6963 91.9894 84.6252C92.1586 85.5541 92.6214 86.4041 93.3098 87.0503C93.4533 87.1679 93.6353 87.2282 93.8206 87.2195C94.0059 87.2108 94.1814 87.1337 94.3133 87.0032C94.4451 86.8726 94.5238 86.6978 94.5343 86.5126C94.5447 86.3274 94.4861 86.1448 94.3698 86.0003C94.2358 85.8772 94.1121 85.7435 93.9998 85.6003C93.9098 85.4903 93.9998 85.6603 93.9998 85.6003C93.9789 85.5653 93.9555 85.5319 93.9298 85.5003C93.9298 85.4303 93.8398 85.3503 93.7898 85.2703L93.6598 85.0003C93.6598 84.9303 93.6598 84.9003 93.6598 85.0003C93.6598 85.1003 93.6598 84.9303 93.6598 84.8903C93.5928 84.7146 93.5393 84.5341 93.4998 84.3503C93.4998 84.2903 93.4998 84.0403 93.4998 84.2203C93.4949 84.1303 93.4949 84.0402 93.4998 83.9503C93.4899 83.7737 93.4899 83.5968 93.4998 83.4203C93.4998 83.3103 93.4998 83.5503 93.4998 83.4203V83.2703L93.5598 83.0203L93.6498 82.7603C93.6498 82.6803 93.6498 82.7603 93.6498 82.7603L93.7298 82.5903C93.8293 82.4179 93.8562 82.213 93.8046 82.0208C93.7531 81.8286 93.6272 81.6647 93.4548 81.5653C93.2825 81.4658 93.0776 81.4389 92.8854 81.4905C92.6932 81.5421 92.5293 81.6679 92.4298 81.8403L92.3698 81.8903Z" fill="#DB836E"/>
<path d="M93.7597 83.1304L94.1397 84.1304C94.1662 84.2235 94.2142 84.3091 94.2797 84.3804C94.3316 84.4637 94.4039 84.5326 94.4897 84.5804C94.5745 84.6308 94.671 84.6584 94.7697 84.6604C94.8674 84.6904 94.972 84.6904 95.0697 84.6604C95.2556 84.6046 95.4153 84.484 95.5197 84.3204L95.5897 84.1404C95.6298 84.0101 95.6298 83.8707 95.5897 83.7404L95.2097 82.7404C95.1891 82.6441 95.1444 82.5546 95.0797 82.4804C95.025 82.4019 94.9532 82.3369 94.8697 82.2904C94.7878 82.2324 94.69 82.201 94.5897 82.2004C94.4913 82.1754 94.3881 82.1754 94.2897 82.2004C94.0995 82.2533 93.9378 82.379 93.8397 82.5504L93.7597 82.7304C93.7298 82.8587 93.7298 82.9921 93.7597 83.1204V83.1304Z" fill="#DB836E"/>
<path d="M86.2197 206.61C81.1397 203.31 80.1197 196.06 81.3897 190.61C81.5997 189.67 80.1597 189.27 79.9397 190.21C78.5097 196.38 79.7897 204.21 85.4597 207.93C86.2697 208.45 87.0197 207.15 86.2197 206.63V206.61Z" fill="#648BD8"/>
<path d="M118.52 304.09V305.39C118.524 305.588 118.603 305.777 118.74 305.92C118.881 306.061 119.071 306.14 119.27 306.14C119.369 306.141 119.466 306.122 119.558 306.085C119.649 306.047 119.731 305.991 119.8 305.92C119.939 305.779 120.018 305.589 120.02 305.39V304.09C120.021 303.992 120.002 303.894 119.964 303.803C119.926 303.712 119.871 303.629 119.8 303.56C119.66 303.42 119.469 303.341 119.27 303.34C119.071 303.34 118.88 303.419 118.74 303.56C118.599 303.701 118.52 303.891 118.52 304.09Z" fill="#648BD8"/>
<path d="M106 308.67C107.55 310.27 110.46 310.07 112.46 309.81C114.64 309.53 117.32 308.98 118.98 307.41C119.68 306.75 118.62 305.69 117.92 306.35C117.285 306.873 116.555 307.267 115.77 307.51C114.687 307.89 113.567 308.159 112.43 308.31C111.344 308.475 110.243 308.505 109.15 308.4C108.389 308.371 107.658 308.094 107.07 307.61C106.39 306.92 105.33 307.98 106 308.67Z" fill="#648BD8"/>
<path d="M69.9998 303.31C71.6588 304.489 73.5384 305.322 75.5262 305.758C77.5141 306.194 79.5695 306.226 81.5698 305.85C82.5198 305.68 82.1198 304.23 81.1698 304.4C79.3577 304.726 77.4985 304.681 75.7043 304.268C73.9101 303.856 72.2179 303.084 70.7298 302C69.9398 301.43 69.1898 302.73 69.9698 303.29L69.9998 303.31Z" fill="#648BD8"/>
<path d="M144.87 119.85C147.252 121.203 149.072 123.363 150 125.94C150.017 125.995 150.045 126.045 150.084 126.086C150.122 126.128 150.169 126.161 150.222 126.182C150.275 126.203 150.332 126.212 150.389 126.208C150.445 126.205 150.5 126.188 150.55 126.16C152.541 124.847 154.19 123.078 155.36 121C155.395 120.915 155.398 120.821 155.369 120.734C155.34 120.647 155.28 120.573 155.201 120.527C155.121 120.48 155.028 120.464 154.938 120.482C154.848 120.499 154.767 120.548 154.71 120.62C153.594 122.58 152.023 124.244 150.13 125.47L150.68 125.7C149.703 122.945 147.779 120.627 145.25 119.16C145.165 119.125 145.07 119.122 144.983 119.151C144.896 119.18 144.823 119.24 144.777 119.32C144.73 119.399 144.714 119.492 144.731 119.582C144.748 119.673 144.798 119.754 144.87 119.81V119.85Z" fill="#E4EBF7"/>
<path d="M151.17 125.47C151.193 125.57 151.226 125.667 151.27 125.76C151.321 125.847 151.377 125.931 151.44 126.01C151.506 126.084 151.579 126.152 151.66 126.21C151.72 126.253 151.783 126.289 151.85 126.32C151.893 126.346 151.94 126.363 151.99 126.37C152.039 126.385 152.091 126.385 152.14 126.37C152.235 126.345 152.317 126.284 152.37 126.2C152.389 126.154 152.399 126.105 152.399 126.055C152.399 126.005 152.389 125.956 152.37 125.91V125.82C152.334 125.764 152.286 125.716 152.23 125.68C152.161 125.653 152.097 125.616 152.04 125.57L152.12 125.63C152.059 125.584 152.005 125.531 151.96 125.47L152.02 125.55C151.971 125.489 151.93 125.422 151.9 125.35V125.44C151.877 125.389 151.86 125.335 151.85 125.28C151.822 125.185 151.758 125.106 151.672 125.057C151.587 125.008 151.485 124.995 151.39 125.02C151.298 125.047 151.219 125.108 151.17 125.19V125.28C151.15 125.345 151.15 125.415 151.17 125.48V125.47Z" fill="#E4EBF7"/>
<path d="M150.86 122.33C150.719 122.378 150.593 122.463 150.495 122.574C150.397 122.686 150.33 122.821 150.301 122.967C150.272 123.113 150.281 123.264 150.328 123.405C150.375 123.546 150.459 123.672 150.57 123.77C150.73 123.909 150.929 123.993 151.14 124.01C151.336 124.027 151.534 123.99 151.71 123.901C151.887 123.813 152.035 123.678 152.14 123.51C152.249 123.344 152.312 123.152 152.323 122.954C152.333 122.755 152.291 122.557 152.2 122.38C152.146 122.277 152.072 122.185 151.983 122.109C151.893 122.034 151.79 121.977 151.678 121.942C151.567 121.907 151.45 121.894 151.333 121.904C151.217 121.914 151.103 121.947 151 122C150.957 122.025 150.92 122.057 150.889 122.096C150.859 122.135 150.837 122.179 150.824 122.226C150.811 122.274 150.808 122.323 150.814 122.372C150.82 122.421 150.835 122.468 150.86 122.51C150.884 122.553 150.916 122.591 150.955 122.621C150.994 122.651 151.038 122.673 151.086 122.686C151.133 122.699 151.183 122.703 151.231 122.697C151.28 122.69 151.327 122.675 151.37 122.65C151.37 122.65 151.28 122.65 151.37 122.65H151.44H151.34H151.46H151.36H151.44C151.44 122.65 151.35 122.65 151.44 122.65H151.5C151.44 122.65 151.5 122.65 151.5 122.65V122.73C151.5 122.73 151.5 122.64 151.5 122.73C151.504 122.76 151.504 122.791 151.5 122.82V122.72C151.51 122.787 151.51 122.854 151.5 122.92V122.82C151.504 122.857 151.504 122.894 151.5 122.93V122.99C151.5 122.99 151.5 122.89 151.5 122.99L151.44 123.08C151.44 123.14 151.44 123.03 151.44 123.08L151.37 123.15C151.43 123.08 151.37 123.15 151.37 123.15H151.32C151.32 123.15 151.41 123.15 151.32 123.15H151.21H151.31C151.257 123.16 151.203 123.16 151.15 123.15H151.25H151.17H151.1C151.1 123.15 151.1 123.15 151.05 123.15C151.05 123.15 151.05 123.24 151.05 123.15C151.054 123.124 151.054 123.097 151.05 123.07V123.17C151.04 123.128 151.04 123.083 151.05 123.04V123.14C151.044 123.104 151.044 123.067 151.05 123.03C151.05 123.12 151.05 123.09 151.05 123.03C151.05 122.97 151.05 122.95 151.05 123.03C151.05 123.11 151.05 123.03 151.05 123.03C151.05 123.03 151.11 123.03 151.05 123.03C151.13 123.03 150.98 123.03 151.05 123.03C151.102 123.021 151.151 123.001 151.195 122.972C151.239 122.942 151.276 122.904 151.304 122.859C151.332 122.815 151.351 122.765 151.359 122.712C151.366 122.66 151.363 122.607 151.349 122.556C151.335 122.505 151.311 122.458 151.278 122.417C151.244 122.376 151.203 122.342 151.156 122.318C151.109 122.294 151.057 122.28 151.005 122.277C150.952 122.274 150.899 122.282 150.85 122.3L150.86 122.33Z" fill="#E4EBF7"/>
<path d="M31.15 122.55C32.2345 123.696 33.3973 124.765 34.63 125.75C34.6762 125.796 34.7337 125.829 34.7969 125.846C34.86 125.863 34.9264 125.863 34.9894 125.845C35.0523 125.828 35.1096 125.794 35.1554 125.748C35.2012 125.701 35.2338 125.643 35.25 125.58C35.7612 124.475 36.4169 123.443 37.2 122.51C37.7615 121.575 38.5809 120.821 39.56 120.34C40.01 120.18 39.81 119.45 39.36 119.62C38.2474 120.134 37.3089 120.961 36.66 122C35.8048 123.036 35.0888 124.179 34.53 125.4L35.16 125.24C33.926 124.243 32.7632 123.16 31.68 122C31.34 121.65 30.81 122.18 31.15 122.53V122.55Z" fill="#E4EBF7"/>
<path d="M34.1199 125.2C33.8706 125.61 33.7392 126.081 33.7399 126.56C33.731 126.615 33.734 126.67 33.7487 126.723C33.7635 126.776 33.7896 126.826 33.8253 126.868C33.8609 126.91 33.9053 126.943 33.9553 126.967C34.0053 126.99 34.0598 127.002 34.1149 127.002C34.17 127.002 34.2244 126.99 34.2744 126.967C34.3244 126.943 34.3688 126.91 34.4045 126.868C34.4401 126.826 34.4663 126.776 34.481 126.723C34.4958 126.67 34.4988 126.615 34.4899 126.56C34.4899 126.46 34.4899 126.36 34.4899 126.25V126.35C34.515 126.155 34.5654 125.963 34.6399 125.78V125.87L34.7899 125.58C34.8148 125.538 34.8312 125.492 34.8382 125.443C34.8452 125.395 34.8426 125.346 34.8305 125.298C34.8184 125.251 34.7971 125.206 34.7679 125.167C34.7386 125.128 34.7019 125.095 34.6599 125.07C34.6178 125.045 34.5713 125.029 34.5229 125.022C34.4746 125.015 34.4253 125.018 34.3779 125.03C34.3306 125.042 34.2861 125.063 34.2469 125.092C34.2078 125.122 34.1748 125.158 34.1499 125.2H34.1199Z" fill="#E4EBF7"/>
<path d="M34.4098 122.07H34.3998H34.3498C34.379 122.06 34.4107 122.06 34.4398 122.07H34.4098Z" fill="#E4EBF7"/>
<path d="M66.3101 129.33C72.6956 132.738 77.677 138.286 80.3801 145C80.5501 145.44 81.2801 145.25 81.1001 144.8C78.3446 137.898 73.2416 132.189 66.6901 128.68C66.2701 128.45 65.8901 129.1 66.3101 129.33Z" fill="#E4EBF7"/>
<path d="M107.59 127.49C104.06 129.68 100.59 132.37 98.6899 136.16C96.6899 140.16 96.5399 144.78 96.4399 149.16C96.4545 149.249 96.5002 149.33 96.5689 149.388C96.6376 149.447 96.7248 149.479 96.8149 149.479C96.9051 149.479 96.9923 149.447 97.061 149.388C97.1297 149.33 97.1754 149.249 97.1899 149.16C97.2899 144.91 97.3799 140.41 99.3399 136.53C101.2 132.85 104.54 130.26 107.97 128.12C108.38 127.87 107.97 127.22 107.59 127.48V127.49Z" fill="#E4EBF7"/>
<path d="M112.55 108.16C111.92 109.34 111.613 110.664 111.66 112C111.545 113.515 111.545 115.036 111.66 116.55C111.776 118 111.994 119.441 112.31 120.86C112.482 122.083 112.987 123.235 113.77 124.19C114.1 124.55 114.62 124.02 114.3 123.66C113.572 122.697 113.122 121.552 113 120.35C112.712 118.995 112.518 117.622 112.42 116.24C112.34 114.968 112.34 113.692 112.42 112.42C112.351 111.076 112.63 109.736 113.23 108.53C113.51 108.13 112.86 107.76 112.59 108.16H112.55Z" fill="#E4EBF7"/>
<path d="M62.0997 112.67C62.988 115.082 63.5105 117.614 63.6497 120.18C63.7597 122.43 63.6497 124.83 62.2097 126.69C61.9197 127.07 62.5697 127.45 62.8597 127.07C64.3097 125.19 64.4997 122.74 64.4097 120.45C64.2989 117.718 63.766 115.02 62.8297 112.45C62.6597 112 61.9397 112.19 62.0997 112.65V112.67Z" fill="#E4EBF7"/>
<path d="M103.92 143.84C103.92 146.37 103.49 149.19 101.57 151.01C99.65 152.83 96.82 153.09 94.8 154.76C94.57 154.96 94.73 155.29 94.97 155.39C97.8376 156.5 100.438 158.204 102.6 160.39C102.95 160.73 103.48 160.2 103.13 159.86C100.859 157.583 98.133 155.811 95.13 154.66L95.3 155.29C97.49 153.47 100.64 153.29 102.54 151.03C104.081 148.964 104.823 146.41 104.63 143.84C104.615 143.751 104.57 143.67 104.501 143.612C104.432 143.554 104.345 143.521 104.255 143.521C104.165 143.521 104.078 143.554 104.009 143.612C103.94 143.67 103.895 143.751 103.88 143.84H103.92Z" fill="#E4EBF7"/>
<path d="M47.4301 125.48C46.8547 126.215 46.4699 127.081 46.3101 128C46.17 128.954 46.1398 129.92 46.2201 130.88C46.2201 131.36 46.9901 131.36 46.9701 130.88C46.8901 129.18 46.8701 127.43 47.9701 126.02C48.0348 125.947 48.0705 125.853 48.0705 125.755C48.0705 125.658 48.0348 125.564 47.9701 125.49C47.8991 125.421 47.8041 125.383 47.7051 125.383C47.6061 125.383 47.511 125.421 47.4401 125.49L47.4301 125.48Z" fill="#E4EBF7"/>
<path d="M46.3698 127.3C45.6678 127.268 44.9668 127.381 44.3098 127.63C44.2153 127.658 44.1353 127.722 44.0868 127.808C44.0383 127.893 44.025 127.995 44.0498 128.09C44.0779 128.185 44.141 128.266 44.2264 128.316C44.3119 128.366 44.4132 128.382 44.5098 128.36C44.8171 128.24 45.1353 128.15 45.4598 128.09H45.5598C45.6098 128.09 45.6098 128.09 45.5598 128.09H45.6198H45.8498H46.3598C46.4598 128.088 46.555 128.047 46.6257 127.976C46.6964 127.905 46.7373 127.81 46.7398 127.71C46.7372 127.611 46.696 127.517 46.625 127.448C46.5541 127.379 46.4589 127.34 46.3598 127.34L46.3698 127.3Z" fill="#E4EBF7"/>
<path d="M134.88 126.62C135.152 126.893 135.337 127.242 135.41 127.62C135.41 128 135.15 128.34 135.21 128.74C135.211 128.797 135.226 128.853 135.251 128.903C135.277 128.954 135.314 128.998 135.359 129.033C135.404 129.067 135.456 129.091 135.512 129.103C135.567 129.115 135.625 129.114 135.68 129.1L136.5 128.88L136.87 128.78C136.95 128.767 137.027 128.744 137.1 128.71C137.21 128.64 137.15 128.84 137.01 128.6L136.95 128.41C136.909 128.557 136.837 128.693 136.74 128.81C136.647 128.943 136.573 129.087 136.52 129.24C136.42 129.61 136.73 129.78 136.98 129.97C137.445 130.332 137.792 130.822 137.98 131.38C138.13 131.84 138.85 131.65 138.7 131.19C138.566 130.771 138.359 130.378 138.09 130.03C137.973 129.87 137.839 129.722 137.69 129.59L137.42 129.37C137.42 129.37 137.23 129.23 137.21 129.21V129.4C137.21 129.35 137.38 129.15 137.41 129.08C137.494 128.948 137.564 128.807 137.62 128.66C137.65 128.594 137.666 128.523 137.666 128.451C137.665 128.378 137.65 128.307 137.619 128.241C137.589 128.176 137.544 128.118 137.489 128.071C137.434 128.024 137.37 127.99 137.3 127.97C137.01 127.938 136.717 127.983 136.45 128.1L135.45 128.38L135.93 128.74C135.931 128.519 135.979 128.301 136.07 128.1C136.13 127.86 136.13 127.61 136.07 127.37C135.932 126.902 135.686 126.474 135.35 126.12C135.04 125.75 134.51 126.28 134.82 126.65L134.88 126.62Z" fill="#E4EBF7"/>
<path d="M218 208.5H227.5C230.261 208.5 232.5 206.261 232.5 203.5V193" stroke="#1CAD10" stroke-width="7" stroke-linecap="round" stroke-linejoin="round"/>
<path d="M206.5 258.5H205C202.239 258.5 200 256.261 200 253.5V220" stroke="#1CAD10" stroke-width="6" stroke-linecap="round" stroke-linejoin="round"/>
<rect x="204" y="189" width="21" height="99" rx="10.5" fill="#6EC12C"/>
<path d="M220 266.5H226.5C230.918 266.5 234.5 262.918 234.5 258.5V228" stroke="#6EC12C" stroke-width="10" stroke-linecap="round" stroke-linejoin="round"/>
<path d="M208 239.5H203.5C199.082 239.5 195.5 235.918 195.5 231.5V201" stroke="#6EC12C" stroke-width="10" stroke-linecap="round" stroke-linejoin="round"/>
<path d="M193.06 280.77C192.949 280.057 192.993 279.328 193.19 278.634C193.387 277.94 193.733 277.296 194.202 276.748C194.671 276.2 195.254 275.76 195.909 275.458C196.565 275.156 197.278 275 198 275H230.3C231.021 275 231.734 275.156 232.39 275.458C233.046 275.76 233.628 276.2 234.097 276.748C234.567 277.296 234.912 277.94 235.109 278.634C235.306 279.328 235.351 280.057 235.24 280.77L228.66 322.77C228.476 323.948 227.877 325.022 226.971 325.798C226.066 326.574 224.912 327 223.72 327H204.58C203.387 327 202.234 326.574 201.328 325.798C200.422 325.022 199.823 323.948 199.64 322.77L193.06 280.77Z" fill="#F2D7AD"/>
<path d="M193 275H235C236.326 275 237.598 275.527 238.536 276.464C239.473 277.402 240 278.674 240 280C240 281.326 239.473 282.598 238.536 283.536C237.598 284.473 236.326 285 235 285H193C191.674 285 190.402 284.473 189.464 283.536C188.527 282.598 188 281.326 188 280C188 278.674 188.527 277.402 189.464 276.464C190.402 275.527 191.674 275 193 275Z" fill="#F0CD97"/>
<path d="M250.518 16.9211C250.815 17.4422 251.394 17.7363 251.99 17.6689C252.977 17.5574 253.982 17.5 255 17.5C269.636 17.5 281.5 29.3645 281.5 44C281.5 58.6355 269.636 70.5 255 70.5H193C180.021 70.5 169.5 59.9787 169.5 47C169.5 34.0213 180.021 23.5 193 23.5C193.186 23.5 193.372 23.5022 193.556 23.5064C194.217 23.5218 194.81 23.1028 195.016 22.4749C199.017 10.293 210.484 1.5 224 1.5C235.357 1.5 245.267 7.70706 250.518 16.9211Z" fill="#A599EC" stroke="#A599EC" stroke-width="3" stroke-linejoin="round"/>
<path d="M237.215 36.3867H233.401V33.1307C233.401 28.6333 229.924 25 225.659 25C221.373 25 217.915 28.6333 217.915 33.1307V36.3867H214.101C212.387 36.3867 211 37.8427 211 39.64V53.7427C211 55.544 212.387 57 214.101 57H237.232C238.947 57 240.333 55.5427 240.333 53.744V39.6413C240.316 37.8427 238.928 36.3867 237.215 36.3867ZM221 33.1307C221 30.432 223.089 28.256 225.643 28.256C228.212 28.256 230.285 30.432 230.285 33.1307V36.3867H220.981V33.1307H220.999H221ZM226.671 48.1147V50.4707C226.671 51.064 226.208 51.5507 225.643 51.5507C225.077 51.5507 224.615 51.064 224.615 50.4707V48.1147C223.004 47.52 222.148 45.6493 222.729 43.9587C223.295 42.268 225.076 41.3693 226.688 41.98C228.297 42.5733 229.155 44.444 228.572 46.136C228.247 47.0533 227.561 47.7893 226.671 48.1147Z" fill="white"/>
</svg>
